<svg version="1.1" xmlns="http://www.w3.org/2000/svg" xmlns:xlink="http://www.w3.org/1999/xlink" width="351.35135" height="351.16216" viewBox="0,0,351.35135,351.16216"><g transform="translate(-64.32432,-4.41892)"><g data-paper-data="{&quot;isPaintingLayer&quot;:true}" fill-rule="nonzero" stroke-linecap="butt" stroke-linejoin="miter" stroke-miterlimit="10" stroke-dasharray="" stroke-dashoffset="0" style="mix-blend-mode: normal"><path d="M64.32433,355.58108v-351.16216h351.35135v351.16216z" fill="none" stroke="#000000" stroke-width="0"/><g><path d="M224.05596,152.73975v-31.38986c0,0 -2.27609,-26.58104 9.67592,-37.76287c29.05825,-27.18577 42.14227,-34.48364 42.14227,-34.48364l16.94056,27.9021c0,0 -10.52396,7.78174 -23.22824,17.92752c-10.95024,8.745 -5.67037,25.42039 -5.67037,25.42039v32.38637z" fill="#a07936" stroke="none" stroke-width="0"/><path d="M140.34966,250.39711c0,-49.85743 33.29311,-93.15601 71.7993,-98.49406c4.965,-0.76137 3.27063,-25.73672 3.27063,-25.73672l58.46453,1.34177c0,0 -2.38693,24.80238 0.34832,25.4566c32.0138,7.65706 65.41794,48.41103 65.41794,97.43241c0,55.03538 -44.61498,99.65036 -99.65037,99.65036c-55.03538,0 -99.65036,-44.61498 -99.65036,-99.65036z" fill="#000000" stroke="none" stroke-width="0"/><path d="M241.31935,65.43577l19.19651,-55.48323l22.67775,38.53456l24.8941,-27.55641l-5.02021,43.97578l33.15357,16.47297l-57.46238,21.29267z" data-paper-data="{&quot;index&quot;:null}" fill="#ff0000" stroke="#ffa000" stroke-width="4.5"/></g></g></g></svg>