<svg version="1.1" xmlns="http://www.w3.org/2000/svg" xmlns:xlink="http://www.w3.org/1999/xlink" width="362.40105" height="351.16216" viewBox="0,0,362.40105,351.16216"><g transform="translate(-58.27463,-9.41892)"><g data-paper-data="{&quot;isPaintingLayer&quot;:true}" fill-rule="nonzero" stroke-linecap="butt" stroke-linejoin="miter" stroke-miterlimit="10" stroke-dasharray="" stroke-dashoffset="0" style="mix-blend-mode: normal"><path d="M344.24999,176.49105l1.25531,-8.24919l-25.29722,-0.69792l20.77089,27.34099l47.42361,-2.05313l6.03043,-7.01869l3.49344,5.63154l-5.52215,7.30155l-53.32371,1.81566l-25.22743,-32.48896l-11.59476,3.86066l-122.58019,-4.73096l-1.11033,-19.84083l122.5663,4.74753l45.9037,6.06143l0.71212,-4.67968l48,2.5l-6,29.5z" data-paper-data="{&quot;index&quot;:null}" fill="#000000" stroke="#000000" stroke-width="2"/><path d="M249.25,192.74105l-11.06361,14.36604l-51.96807,-0.49474c0,0 -6.18348,-0.10372 -15.42201,-10.01945c-6.85992,-7.36276 -6.56894,-11.38752 -6.56894,-11.38752l14.58457,-15.9797l72.43806,0.51537l54,2l-5.5,22z" data-paper-data="{&quot;index&quot;:null}" fill="#808080" stroke="#000000" stroke-width="2"/><path d="M397.25,181.72643l4.5,-15.5l11.60885,-1.83274l2.89115,10.33274l-12.5,12.5z" data-paper-data="{&quot;index&quot;:null}" fill="#ff0000" stroke="#ffa000" stroke-width="4.5"/><path d="M135.3986,161.09132l-10.20084,3.00373l-2.07799,13.74126l-7.47476,-10.42726l-7.70108,2.67163l12.45349,17.37791l35.42392,-9.62857l7.53054,5.80842l-46.16125,8.94858l-14.94063,-20.09597l-0.5,-12l43.5,-14.5l35.01376,1.53548l-1.85618,20.10495l-14.65758,16.35957z" data-paper-data="{&quot;index&quot;:null}" fill="#000000" stroke="#000000" stroke-width="2"/><path d="M74.5,227.49105l-15,-11.5l15,-35l26,-20l1.5,12.5l15.5,18.5l-25,6.5z" data-paper-data="{&quot;index&quot;:null}" fill="#7f7f7f" stroke="#000000" stroke-width="2"/><path d="M242.5,202.75l7,-10l50.5,0.5l-2.23077,5.34615l-8.26923,5.15385z" data-paper-data="{&quot;index&quot;:null}" fill="#000000" stroke="#000000" stroke-width="2"/><g fill="#000000" stroke="#000000" stroke-width="2"><path d="M212.17754,150.02602l6.33333,-12.66667l10.32704,0.33333l3.10659,7.48406l13.90979,1.11981l6.08911,-8.26962l10.55386,0.78067l4.31073,8.23978l11.60686,0.33502l6.20677,-7.13476l8.37289,0.8007l7.17674,11.97767z"/><path d="M182.74818,148.71574l8.54011,-13.46809l8.37289,0.8007l4.54627,7.08984l15.29165,1.5738l-2.66118,5.64735z"/></g><path d="M69.32433,360.58108v-351.16216h351.35135v351.16216z" fill="none" stroke="#000000" stroke-width="0"/></g></g></svg>