<svg version="1.1" xmlns="http://www.w3.org/2000/svg" xmlns:xlink="http://www.w3.org/1999/xlink" width="387.27262" height="369.70608" viewBox="0,0,387.27262,369.70608"><g transform="translate(-28.40306,-4.41892)"><g data-paper-data="{&quot;isPaintingLayer&quot;:true}" fill-rule="nonzero" stroke="#000000" stroke-linecap="butt" stroke-linejoin="miter" stroke-miterlimit="10" stroke-dasharray="" stroke-dashoffset="0" style="mix-blend-mode: normal"><path d="M28.40306,374.125z" fill="#834f2d" stroke-width="2"/><g stroke-width="2"><path d="M68.33652,192.65009l-4.46855,-36.33123l53.08374,-7.68245l10.09766,2.84476l30.07528,-6.8194l3.8857,17.09704z" fill="#834f2d"/><path d="M157.31894,198.1872l8.74566,-27.93712l-1.75143,-6.64555l22.14846,0.77712l-0.38857,6.60569c0,0 -3.32831,1.36958 -4.871,3.91219c-1.75194,2.88745 -8.83157,27.30797 -8.83157,27.30797z" fill="#834f2d"/><path d="M158.87323,142.23321l8.93708,-10.49138l114.59603,-2.00437l-1.52231,7.05576l-16.70848,1.55428l2.17245,20.69382l-23.51059,-0.16085c0,0 -1.84142,4.75516 6.84735,23.42371c9.55785,20.53586 24.13854,28.33503 24.13854,28.33503l-12.2619,19.72752c0,0 -25.57485,-21.52784 -33.35643,-33.06884c-6.02381,-8.93403 -9.42471,-30.38065 -9.42471,-30.38065l-5.36091,1.79092l-5.94177,5.44345l-22.49121,-0.91407l1.51442,-3.71382l18.42463,2.31383l4.07287,-4.73577l-1.5488,-5.33018l-18.51962,0.85848l-26.97694,-1.12446z" fill="#000000"/><path d="M266.50698,139.90178l15.15421,-1.55427l1.94285,-8.54853l40.7998,-1.16571l-0.38857,24.86845l-40.77102,2.53577l-15.91954,2.2993z" fill="#834f2d"/><path d="M325.9581,150.39316l-0.38857,-18.65134l31.86269,-0.38857c0,0 8.06731,9.94084 15.15038,9.83818c4.48454,-0.06501 18.69698,-0.76439 18.69698,-0.76439l15.88952,-0.52528c0,0 4.95279,-1.42563 5.51679,5.13474c0.43345,5.0417 -7.46308,5.24546 -7.46308,5.24546z" fill="#000000"/></g><path d="M64.32433,355.58108v-351.16216h351.35135v351.16216z" fill="none" stroke-width="0"/></g></g></svg>