<svg version="1.1" xmlns="http://www.w3.org/2000/svg" xmlns:xlink="http://www.w3.org/1999/xlink" width="1222.6671" height="1092.43848" viewBox="0,0,1222.6671,1092.43848"><g transform="translate(371.33355,366.21924)"><g data-paper-data="{&quot;isPaintingLayer&quot;:true}" fill-rule="nonzero" stroke="#000000" stroke-width="2.5" stroke-linejoin="miter" stroke-miterlimit="10" stroke-dasharray="" stroke-dashoffset="0" style="mix-blend-mode: normal"><path d="M654.9645,76.95869v-38h27v38z" fill="#676767" stroke-linecap="butt"/><path d="M742.9645,167.45869v-29h29v29z" fill="#fffd00" stroke-linecap="butt"/><g data-paper-data="{&quot;index&quot;:null}" stroke-linecap="butt"><path d="M362.98942,135.45871v-74.75h57.25l-0.05612,-6.74962l9.02078,-0.54902l-0.05139,-12.95078l-9.53066,-0.00659l0.43545,-15.48898l25.68195,-0.75502v8.25h-16.5v28.24999h17.5l-0.5,-36l10.2108,-0.63091l0.2892,36.63091h21.25v74.75z" fill="#676767"/><path d="M412.07591,125.4587v-10.43393l-49.11141,-0.50839l0.06905,-26.4529l48.32252,0.36431l0.71984,-17.4691h17.16352l-0.08101,-37.78298l17.08101,-0.21702v38h19.75v54.49999z" fill="#00ff29"/></g><path d="M552.24466,216.67854l-3,-99h240v30l-0.19856,73.59624l-81.80144,1.40376l0.85048,-24.21855l69.14952,0.21855l-0.50038,-23.5196l-0.81548,-45.08184l-40.68557,0.39869l-0.41074,48.41203l-27.95304,0.75432l0.36522,-31.96361l-140.58738,-0.71985l1.01011,57.71721l43.22755,0.23619l-2.86234,-40.41548l17.21141,0.84704l0.33091,34.031l55.75148,0.30388l-2.67683,17.63203z" fill="#676767" stroke-linecap="butt"/><g stroke-linecap="butt"><path d="M418.9645,356.95869v-125h59v125z" fill="#676767"/><path d="M443.4645,331.45869l0.5,-67.5h26.75l0.08004,10.40902l7.16996,0.09098l1.21984,39.77621l-8.88893,0.67704l1.41909,17.54674z" fill="#00ff29"/></g><g fill="#676767" stroke-linecap="butt"><path d="M345.4645,299.95869v-106h8v106z"/><g><path d="M423.9645,165.70869v-11h41v11z"/><path d="M344.4645,167.45869v-12h28v12z"/></g></g><g fill="#676767" stroke-linecap="butt"><path d="M567.9645,384.95869v-8h162v8z"/><path d="M681.4645,257.20869v-11h41v11z"/><path d="M643.4645,221.20869h11v41h-11z"/><path d="M744.9645,320.20869v-11h41v11z"/></g><path d="M-17.28549,258.73647l-3.33333,-170.66667l-67.72494,-0.5914l-0.68455,48.03042l-38.24277,-2.44763l-4.62274,-44.77881l-37.36474,3.55428l0.82824,39.59804l-124.60726,0.01537l-2.2558,85.89258l135.94276,0.68316l-2.87832,-48.00952l47.36941,4.19789l-0.36853,42.83533l27.47854,-0.89454l0.46402,42.5815h-239.75v-201.77778h337v201.77778z" fill="#676767" stroke-linecap="butt"/><path d="M140.09663,310.10321v6.75h-263v-6.75z" fill="#676767" stroke-linecap="butt"/><path d="M-285.0355,210.45869v-75h29v75z" fill="#fffd00" stroke-linecap="butt"/><path d="M-298.0355,375.95869v-8h162v8z" fill="#676767" stroke-linecap="butt"/><path d="M55.09654,393.75841l-3.06274,-9.60694l39.06292,-12.45345l3.06274,9.60694z" fill="#676767" stroke-linecap="butt"/><path d="M102.22252,381.70951l-6.45372,-8.90783l33.20193,-24.05477l6.45372,8.90783z" fill="#676767" stroke-linecap="butt"/><path d="M7.05843,393.47821l1.58812,-9.95748l40.48828,6.45748l-1.58812,9.95748z" fill="#676767" stroke-linecap="butt"/><path d="M233.89841,389.49872l-15.92913,-1.49711l30.31656,-322.56493l15.92913,1.49711z" data-paper-data="{&quot;index&quot;:null}" fill="#676767" stroke-linecap="butt"/><path d="M305.9645,26.45869v-12h21v12z" data-paper-data="{&quot;index&quot;:null}" fill="#676767" stroke-linecap="butt"/><path d="M197.54708,83.01425v-14h10v14z" data-paper-data="{&quot;index&quot;:null}" fill="#676767" stroke-linecap="butt"/><path d="M175.0666,154.53977v-51h1v51z" data-paper-data="{&quot;index&quot;:null}" fill="#676767" stroke-linecap="butt"/><path d="M108.06359,126.53977v-39h84v39z" data-paper-data="{&quot;index&quot;:null}" fill="#676767" stroke-linecap="butt"/><path d="M181.09663,306.97821v-29h8v29z" data-paper-data="{&quot;index&quot;:null}" fill="#676767" stroke-linecap="butt"/><path d="M558.7645,207.05869v19.4" fill="none" stroke-linecap="round"/><path d="M547.5645,216.85869h24.2" fill="none" stroke-linecap="round"/><path d="M556.96451,430.45869v-12.5h175.5l-0.93475,36h-8.41278l0.93475,-26.5z" fill="#676767" stroke-linecap="butt"/><path d="M722.96451,562.95869v-104h18v104z" fill="#676767" stroke-linecap="butt"/><path d="M488.96451,663.95869v-14h161v14z" fill="#676767" stroke-linecap="butt"/><path d="M383.96451,640.95869v-10h141v10z" fill="#676767" stroke-linecap="butt"/><path d="M694.21451,571.20869h12.5v89.5l-36,-0.4767v-4.29028l26.5,0.4767z" fill="#676767" stroke-linecap="butt"/><path d="M340.9645,708.95869v-38h42v38z" fill="#676767" stroke-linecap="butt"/><path d="M424.9645,492.95869v-15h248v15z" fill="#676767" stroke-linecap="butt"/><path d="M427.9645,595.95869v-23h225v23z" fill="#676767" stroke-linecap="butt"/><path d="M-63.25534,519.70869v-19h43.46073c1.38116,4.46793 -4.99636,10.01197 -4.99437,10.01822c0.95525,2.99894 1.88284,5.99072 2.78454,8.98178z" fill="#676767" stroke-linecap="butt"/><path d="M115.74466,500.70869v19h-33.74175c-0.49635,-6.32356 -0.89743,-12.66028 -1.22299,-19z" fill="#676767" stroke-linecap="butt"/><path d="M25.44666,514.63568c2.74415,-4.74081 -11.24405,-12.37029 -8.10512,-16.92699l43.44977,3c0.29538,6.32795 0.67767,12.66983 1.15578,19h-39.2414c0.86539,-1.71544 1.7771,-3.40784 2.74096,-5.07301z" fill="#676767" stroke-linecap="butt"/><path d="M71.36015,592.70869c0.543,4.23085 1.02423,8.46638 1.40966,12.70889c0.25675,2.82606 -0.18747,5.68518 0.04977,8.51294c0.02181,0.25997 0.05022,0.51931 0.08365,0.77817l-65.53691,-1.5015c4.40588,-7.37028 -4.64142,-13.20602 -0.09056,-20.4985z" fill="#676767" stroke-linecap="butt"/><path d="M-64.25534,614.70869v-22h47.94625c-4.51095,7.2919 3.04854,15.61089 -1.29082,23z" fill="#676767" stroke-linecap="butt"/><path d="M116.74466,592.70869v22h-23.53294c-0.21489,-1.0702 -0.45248,-2.1399 -0.54198,-3.22183c-0.20575,-2.48725 0.27586,-5.00158 0.04977,-7.48706c-0.34434,-3.78532 -1.01196,-7.53249 -1.58821,-11.29111z" fill="#676767" stroke-linecap="butt"/><path d="M117.74466,641.70869v-77.96002c2.16983,-0.42398 4.34418,-0.82167 6.52921,-1.15759c8.30406,-1.27667 16.28647,5.11601 24.47079,4.47115v74.64647z" fill="#676767" stroke-linecap="butt"/><path d="M117.74466,473.70869h31v56.2946c-9.22743,0.74444 -18.23158,-0.60831 -27.52921,0.82301c-1.15982,0.17855 -2.31641,-1.62446 -3.47079,-1.41474z" fill="#676767" stroke-linecap="butt"/><path d="M-95.25534,641.70869v-61.20389c3.80182,-0.69239 7.61144,-1.33789 11.43497,-1.8996c6.16644,-0.90591 12.36069,-1.59987 18.56503,-2.20937v65.31286z" fill="#676767" stroke-linecap="butt"/><path d="M-95.25534,473.70869h30v58.53502c-9.99422,0.56273 -19.98391,1.13002 -30,1.35922z" fill="#676767" stroke-linecap="butt"/><path d="M-63.25534,590.70869v-69h180v69z" fill="#00ff29" stroke-linecap="butt"/><path d="M-62.0355,457.95869v-12h49v12z" fill="#676767" stroke-linecap="butt"/><path d="M-6.5355,461.95869v-14.5h49v14.5z" fill="#676767" stroke-linecap="butt"/><path d="M46.4645,458.45869v-12h49v12z" fill="#676767" stroke-linecap="butt"/><path d="M187.89774,457.87722l8.48528,-8.48528l34.64823,34.64823l-8.48528,8.48528z" fill="#676767" stroke-linecap="butt"/><path d="M231.89774,463.87722l8.48528,-8.48528l34.64823,34.64823l-8.48528,8.48528z" fill="#676767" stroke-linecap="butt"/><path d="M227.42821,648.99928l-11.22722,-4.23668l17.2998,-45.84448l11.22722,4.23668z" fill="#676767" stroke-linecap="butt"/><path d="M247.42821,590.99928l-11.22722,-4.23668l17.2998,-45.84448l11.22722,4.23668z" fill="#676767" stroke-linecap="butt"/><g fill="#676767" stroke-linecap="butt"><path d=""/><path d=""/><path d=""/><path d=""/><path d=""/><path d=""/><path d=""/><path d=""/><path d=""/><path d=""/><path d=""/><path d=""/><path d=""/><path d=""/><path d=""/><path d=""/><path d=""/><path d=""/><path d=""/><path d=""/><path d=""/><path d=""/><path d=""/><path d=""/><path d=""/><path d=""/><path d=""/><path d=""/><path d=""/><path d=""/><path d=""/></g><path d="M305.9645,714.45869v-307h17v307z" fill="#676767" stroke-linecap="butt"/><path d="M27.60414,-73.29806v-35h35v35z" fill="#676767" stroke-linecap="butt"/><path d="M63.60414,-73.29806v-35h35v35z" fill="#676767" stroke-linecap="butt"/><path d="M29.60414,-0.29806v-70h70v70z" fill="#676767" stroke-linecap="butt"/><path d="M109.96819,-126.73009l11.06798,-33.20392l33.20391,11.06798l-11.06797,33.20391z" fill="#676767" stroke-linecap="butt"/><path d="M143.46819,-114.23009l11.06798,-33.20391l33.20391,11.06797l-11.06797,33.20392z" fill="#676767" stroke-linecap="butt"/><path d="M185.27793,-90.14927l-1.32258,-34.975l34.975,-1.32258l1.32258,34.975z" fill="#676767" stroke-linecap="butt"/><path d="M184.77793,-55.14927l-1.32258,-34.975l34.975,-1.32258l1.32258,34.975z" fill="#676767" stroke-linecap="butt"/><path d="M187.77793,-17.64927l-1.32258,-34.975l34.975,-1.32258l1.32258,34.975z" fill="#676767" stroke-linecap="butt"/><path d="M257.2091,-129.14927l-0.68617,-18.14559c1.83537,-0.04208 3.74628,-0.18044 6.87328,-0.0032c20.30823,1.15116 26.16212,1.09261 58.20794,1c4.38121,-0.01266 8.62559,-1.85267 12.98039,-2c2.68738,-0.09092 5.37648,-0.06995 8.06586,-0.03869l0.60254,15.93373z" fill="#676767" stroke-linecap="butt"/><path d="M253.95535,-215.1931l86.04383,-3.25375l0.56474,14.93427c-4.63936,-0.27046 -9.27589,-0.52652 -13.9086,-0.75784c-18.9934,-0.94837 -38.03417,-0.0744 -57.05118,-0.02765c-2.7844,0.00684 -5.7326,0.74911 -8.42136,1c-2.21997,0.20714 -4.48316,0.42364 -6.75169,0.68591z" fill="#676767" stroke-linecap="butt"/><path d="M-142.53328,577.99645l-7.28865,9.53286l-38.92586,-29.76201l7.28864,-9.53287z" fill="#676767" stroke-linecap="butt"/><path d="M-192.32323,542.15009l-7.28865,9.53287l-38.92586,-29.762l7.28865,-9.53286z" fill="#676767" stroke-linecap="butt"/><path d="M-167.57852,439.62755l0.27172,11.99692l-48.98743,1.10952l-0.27172,-11.99692z" fill="#676767" stroke-linecap="butt"/><path d="M-228.84887,442.781l0.27172,11.99692l-48.98743,1.10952l-0.27172,-11.99692z" fill="#676767" stroke-linecap="butt"/><path d="M-80.14046,-71.30106v-35h35v35z" data-paper-data="{&quot;index&quot;:null}" fill="#676767" stroke-linecap="butt"/><path d="M-116.14046,-71.30106v-35h35v35z" data-paper-data="{&quot;index&quot;:null}" fill="#676767" stroke-linecap="butt"/><path d="M-117.14046,1.69894v-70h70v70z" data-paper-data="{&quot;index&quot;:null}" fill="#676767" stroke-linecap="butt"/><path d="M-160.70843,-113.66512l-11.06797,-33.20391l33.20391,-11.06798l11.06798,33.20392z" data-paper-data="{&quot;index&quot;:null}" fill="#676767" stroke-linecap="butt"/><path d="M-194.20843,-101.16511l-11.06797,-33.20392l33.20391,-11.06797l11.06798,33.20391z" data-paper-data="{&quot;index&quot;:null}" fill="#676767" stroke-linecap="butt"/><path d="M-237.78925,-89.47485l1.32258,-34.975l34.975,1.32258l-1.32258,34.975z" data-paper-data="{&quot;index&quot;:null}" fill="#676767" stroke-linecap="butt"/><path d="M-237.28925,-54.47485l1.32258,-34.975l34.975,1.32258l-1.32258,34.975z" data-paper-data="{&quot;index&quot;:null}" fill="#676767" stroke-linecap="butt"/><path d="M-240.28925,-16.97485l1.32258,-34.975l34.975,1.32258l-1.32258,34.975z" data-paper-data="{&quot;index&quot;:null}" fill="#676767" stroke-linecap="butt"/><path d="M-360.78926,-130.40602l0.60254,-15.93373c2.68938,-0.03126 5.37848,-0.05223 8.06586,0.03869c4.3548,0.14733 8.59918,1.98734 12.98039,2c32.04582,0.09261 37.89971,0.15116 58.20794,-1c3.127,-0.17724 5.03791,-0.03888 6.87328,0.0032l-0.68617,18.14559z" data-paper-data="{&quot;index&quot;:null}" fill="#676767" stroke-linecap="butt"/><path d="M-271.96741,-200.61516c-2.26853,-0.26227 -4.53172,-0.47877 -6.75169,-0.68591c-2.68876,-0.25089 -5.63696,-0.99316 -8.42136,-1c-19.01701,-0.04675 -38.05778,-0.92072 -57.05118,0.02765c-4.63271,0.23132 -9.26924,0.48738 -13.9086,0.75784l0.56474,-14.93427l86.04383,3.25375z" data-paper-data="{&quot;index&quot;:null}" fill="#676767" stroke-linecap="butt"/><path d="M-176.14061,-203.43319v-35h35v35z" fill="#676767" stroke-linecap="butt"/><path d="M-129.77656,-256.86522l11.06798,-33.20392l33.20391,11.06798l-11.06797,33.20391z" fill="#676767" stroke-linecap="butt"/><path d="M-96.27656,-244.36522l11.06798,-33.20391l33.20391,11.06797l-11.06797,33.20392z" fill="#676767" stroke-linecap="butt"/><path d="M132.71005,-208.94371v-35h35v35z" data-paper-data="{&quot;index&quot;:null}" fill="#676767" stroke-linecap="butt"/><path d="M88.14208,-251.30777l-11.06797,-33.20391l33.20391,-11.06798l11.06798,33.20392z" data-paper-data="{&quot;index&quot;:null}" fill="#676767" stroke-linecap="butt"/><path d="M54.64208,-238.80776l-11.06797,-33.20392l33.20391,-11.06797l11.06798,33.20391z" data-paper-data="{&quot;index&quot;:null}" fill="#676767" stroke-linecap="butt"/><path d="M401.98964,-85.14927l-1.32258,-34.975l34.975,-1.32258l1.32258,34.975z" fill="#676767" stroke-linecap="butt"/><path d="M401.48964,-165.76488l-1.32258,-34.975l34.975,-1.32258l1.32258,34.975z" fill="#676767" stroke-linecap="butt"/><path d="M404.48964,-12.64927l-1.32258,-34.975l34.975,-1.32258l1.32258,34.975z" fill="#676767" stroke-linecap="butt"/><path d="M301.88453,-48.61774l-1.32258,-34.975l34.975,-1.32258l1.32258,34.975z" fill="#676767" stroke-linecap="butt"/><path d="M356.94009,-250.85497l-1.32258,-34.975l34.975,-1.32258l1.32258,34.975z" fill="#676767" stroke-linecap="butt"/><path d="M241.32147,34.39277l-1.32258,-34.975l34.975,-1.32258l1.32258,34.975z" fill="#676767" stroke-linecap="butt"/><path d="M555.78926,-12.93659v-193.69369h294.29429v193.69369h-222.96096l0.95119,-23.1908l210.99695,-1.70664l-1.49065,-146.05813l-261.22674,-5.4541l-5.02678,149.85216l20.79602,4.5575l-3,22z" fill="#676767" stroke-linecap="butt"/><path d="M601.12259,-63.76049v-106h20v106z" fill="#676767" stroke-linecap="butt"/><path d="M645.12259,-101.76049v-18h90v18z" fill="#676767" stroke-linecap="butt"/><path d="M644.12259,-153.76049v-16h162v16z" fill="#676767" stroke-linecap="butt"/><path d="M757.12259,-67.76049v-64h26v64z" fill="#676767" stroke-linecap="butt"/><path d="M-257.62756,-357.88634v71.71197v32.67935h-94.5v-69.22596l4.55564,-36.14284h89" fill="#00ff29" stroke-linecap="round"/><path d="M-370.08355,-243.14741v-121.82183h132l-1.5,30.31443l-18.26287,-0.2743l-1.0563,-10.84987l-89.68084,2.03272l-2.77287,84.7555l94.26676,-4.08534l0.60012,-31.83333l20.44747,0.27167l-2.54149,51.49036z" fill="#676767" stroke-linecap="butt"/><path d="M-308.5385,715.18842v-62h62v62z" fill="#fffd00" stroke-linecap="butt"/><path d="M-318.88041,724.96924v-79h80v30l-11.30618,-1.45564l0.24516,-18.42856l-56.25824,0.98676l0.3268,58.37919l51.82956,-1.25347l1.16291,-10.22828l14,1v20z" fill="#676767" stroke-linecap="butt"/></g></g></svg>