<svg version="1.1" xmlns="http://www.w3.org/2000/svg" xmlns:xlink="http://www.w3.org/1999/xlink" width="354.48409" height="351.16216" viewBox="0,0,354.48409,351.16216"><g transform="translate(-62.75795,-4.41892)"><g data-paper-data="{&quot;isPaintingLayer&quot;:true}" fill-rule="nonzero" stroke="#000000" stroke-linecap="butt" stroke-linejoin="miter" stroke-miterlimit="10" stroke-dasharray="" stroke-dashoffset="0" style="mix-blend-mode: normal"><path d="M77.40306,215.125l-5.5,-48l95.52587,-4.30416l54.98464,-15.57293l3.9895,18.87709l-39.00792,8.98983l-4.63382,25.02219l-20.77213,-3.49851l-6.08612,-6.01351z" fill="#834f2d" stroke-width="2"/><path d="M70.90307,218.125l-7,-51.5h11.5l15.5,44.5z" fill="#000000" stroke-width="2"/><path d="M219.15307,182.375c-8.27459,1.01017 -17.5,-10 -17.5,-10l3,-0.25c0,0 8.86468,8.91362 14.2106,8.13677c10.60208,-1.54065 6.5394,-12.88677 6.5394,-12.88677c0,0 7.50224,13.32111 -6.25,15z" fill="#000000" stroke-width="2"/><path d="M226.56349,166.22822c0,0 -15.98466,-18.61483 -18.52499,-21.57315c-0.65785,-0.7661 -1.24231,-1.44673 -1.24231,-1.44673l98,-1.33334v27z" fill="#834f2d" stroke-width="2"/><path d="M306.12952,159.54167v-8h105.4443c0,0 4.76656,-0.21636 4.66667,4c-0.11262,4.75389 -4.66667,4 -4.66667,4z" fill="#000000" stroke-width="2"/><path d="M305.79619,150.20833v-8h105.4443c0,0 4.76656,-0.21636 4.66667,4c-0.11262,4.75389 -4.66667,4 -4.66667,4z" fill="#000000" stroke-width="2"/><path d="M64.32432,355.58108v-351.16216h351.35135v351.16216z" fill="none" stroke-width="0"/></g></g></svg>